<svg width="20" height="20" viewBox="0 0 20 20" fill="none" xmlns="http://www.w3.org/2000/svg">
<path d="M0.833374 5.00337V6.67003L2.74483 8.52003L5.00004 9.79503L5.41671 6.98983L5.00004 4.37837L3.83337 3.50337C2.59692 2.57628 0.833374 3.45858 0.833374 5.00337Z" fill="white"/>
<path d="M15 4.37837L14.5834 7.0242L15 9.79503L17.0469 8.78149L19.1667 6.67003V5.00337C19.1667 3.45858 17.4032 2.57628 16.1667 3.50337L15 4.37837Z" fill="white"/>
<path d="M2.08337 16.8783H5.00004V9.79492L0.833374 6.66992V15.6283C0.833374 16.3189 1.39275 16.8783 2.08337 16.8783Z" fill="white"/>
<path d="M15 16.8783H17.9167C18.6073 16.8783 19.1667 16.3189 19.1667 15.6283V6.66992L15 9.79492V16.8783Z" fill="white"/>
<path d="M10 8.12842L5 4.37842V9.79508L10 13.5451L15 9.79508V4.37842L10 8.12842Z" fill="white"/>
</svg>
